<svg width="492" height="110" viewBox="0 0 492 110" fill="none" xmlns="http://www.w3.org/2000/svg">
<path d="M154.3 17.5C153.406 14.1948 151.661 11.1815 149.24 8.7603C146.819 6.33909 143.805 4.59441 140.5 3.70002C128.4 0.400024 79.7 0.400024 79.7 0.400024C79.7 0.400024 31 0.500024 18.9 3.80002C15.5948 4.69441 12.5815 6.43908 10.1603 8.8603C7.73909 11.2815 5.99442 14.2948 5.10003 17.6C1.44003 39.1 0.0200303 71.86 5.20003 92.5C6.09442 95.8053 7.83909 98.8185 10.2603 101.24C12.6815 103.661 15.6948 105.406 19 106.3C31.1 109.6 79.8 109.6 79.8 109.6C79.8 109.6 128.5 109.6 140.6 106.3C143.905 105.406 146.919 103.661 149.34 101.24C151.761 98.8185 153.506 95.8053 154.4 92.5C158.26 70.97 159.45 38.23 154.3 17.5Z" fill="#FF0000"/>
<path d="M64.2 78.4L104.6 55L64.2 31.6V78.4Z" fill="white"/>
<path d="M227.9 99.7C224.8 97.6 222.6 94.4 221.3 90C220 85.6 219.4 79.8 219.4 72.5V62.5999C219.4 55.2999 220.1 49.3 221.6 44.9C223.1 40.4 225.4 37.2 228.6 35.2C231.8 33.2 235.9 32.0999 241 32.0999C246 32.0999 250.1 33.1 253.1 35.2C256.1 37.3 258.4 40.5 259.8 44.9C261.2 49.3 261.9 55.2 261.9 62.5V72.4C261.9 79.7 261.2 85.5 259.8 89.9C258.4 94.3 256.2 97.5 253.1 99.6C250 101.6 245.8 102.7 240.6 102.7C235.2 102.8 231 101.7 227.9 99.7V99.7ZM245.2 89C246.1 86.8 246.5 83.1 246.5 78.1V56.7999C246.5 51.8999 246.1 48.2999 245.2 46.0999C244.3 43.7999 242.8 42.7 240.7 42.7C238.6 42.7 237.2 43.7999 236.3 46.0999C235.4 48.3999 235 51.8999 235 56.7999V78.1C235 83.1 235.4 86.8 236.2 89C237 91.2 238.5 92.3 240.7 92.3C242.8 92.3 244.3 91.2 245.2 89V89ZM464.4 72.7V76.2L464.8 86.1C465.1 88.3 465.6 89.9 466.4 90.9C467.2 91.9 468.5 92.4 470.2 92.4C472.5 92.4 474.1 91.5 474.9 89.7C475.8 87.9 476.2 84.9 476.3 80.8L489.6 81.6C489.7 82.2 489.7 83 489.7 84C489.7 90.3 488 95 484.5 98.1C481 101.2 476.2 102.8 469.9 102.8C462.3 102.8 457 100.4 454 95.7C451 91 449.4 83.6 449.4 73.7V61.5999C449.74 44.5999 452.73 32.1499 470.3 32.0999C475.6 32.0999 479.6 33.1 482.4 35C485.2 36.9 487.2 39.9 488.4 44C489.6 48.1 490.1 53.7 490.1 60.9V72.6H464.4V72.7ZM466.4 43.9C465.6 44.9 465.1 46.3999 464.8 48.5999C464.5 50.7999 464.4 58.5999 464.4 58.5999V63.5H475.6V58.5999C475.6 63.4999 475.5 50.8999 475.2 48.5999C474.9 46.2999 474.4 44.6999 473.6 43.7999C472.8 42.8999 471.6 42.4 470 42.4C468.3 42.5 467.1 43 466.4 43.9V43.9ZM190.5 71.4L173 8.19995H188.3C188.3 8.19995 195.45 39.9 197.9 54.7999H198.3C201.08 38.9799 208.1 8.19995 208.1 8.19995H223.4L205.7 71.3V101.6H190.6V71.4H190.5Z" fill="white"/>
<path d="M311.5 33.3999V101.7H299.5L298.2 93.2999H297.9C294.6 99.5999 289.7 102.8 283.2 102.8C271.43 102.77 270.12 92.7999 270 84.3999V33.3999H285.4V83.4999C285.4 86.4999 285.7 88.6999 286.4 89.9999C287.82 92.7799 291.5 92.0699 293.5 90.6999C294.655 89.9194 295.585 88.8508 296.2 87.5999V33.3999H311.5Z" fill="white"/>
<path d="M390.5 33V101.3H378.5L377.2 92.9H376.9C373.6 99.2 368.7 102.4 362.2 102.4C350.43 102.37 349.12 92.4 349 84V33H364.4V83.1C364.4 86.1 364.7 88.3 365.4 89.6C366.82 92.38 370.5 91.67 372.5 90.3C373.655 89.5195 374.585 88.4509 375.2 87.2V33H390.5Z" fill="white"/>
<path d="M353.3 20.6H338V101.7H323V20.6H307.7V8.19995H353.2V20.6H353.3ZM441.2 44.2999C440.3 39.9999 438.8 36.9 436.7 34.9C434.6 33 431.8 32 428.1 32C425.286 31.9938 422.535 32.8296 420.2 34.4C417.7 36 415.9 38.1 414.5 40.7H414.4V4.69995H399.6V101.6H412.3L413.9 95.1H414.2C415.423 97.3891 417.258 99.2933 419.5 100.6C421.9 101.9 424.5 102.6 427.4 102.6C432.6 102.6 436.4 100.2 438.9 95.4C441.3 90.6 442.6 83.1 442.6 73V62.2C442.6 54.6 442.1 48.5999 441.2 44.2999V44.2999ZM427.1 72.2C427.1 77.2 426.9 81.1 426.5 83.9C426.1 86.7 425.4 88.7 424.4 89.9C423.4 91.1 422.1 91.7 420.5 91.7C417.4 91.6 415.64 90.2 414.4 88.1V49.2999C414.9 47.3999 415.8 45.9 417.1 44.7C419.3 42.23 423.06 42.2 424.8 44.7C425.7 45.9 426.2 48 426.6 50.9C426.9 53.8 427.1 57.8999 427.1 63.2999V72.2Z" fill="white"/>
</svg>
